# xmcd
#
# Track frame offsets:
#	150
#	13972
#	34082
#	54307
#	72810
#	90412
#	110852
#	128820
#	149235
#	163817
#
# Disc length: 2479 seconds
#
# Revision: 2
# Processed by: cddbd v1.5.2PL0 Copyright (c) Steve Scherf et al.
# Submitted via: dBpowerAMP V4.0
#
DISCID=9109ad0a
DTITLE=Oak Ridge Boys - This Crazy Love
DYEAR=1992
DGENRE=Country
TTITLE0=This Crazy Love
TTITLE1=A Little Love Can Go A Long, Long Way
TTITLE2=Whatever It Takes
TTITLE3=Love Has A Mind Of Its Own
TTITLE4=Is This Any Way For Us To Say Goodbye
TTITLE5=Where The Fast Lane Ends
TTITLE6=It Takes A Little Rain (To Make Love Grow)
TTITLE7=Looking For Love
TTITLE8=A Little Late To Say Goodbye
TTITLE9=Rainbow At Midnight
EXTD=
EXTT0=
EXTT1=
EXTT2=
EXTT3=
EXTT4=
EXTT5=
EXTT6=
EXTT7=
EXTT8=
EXTT9=
PLAYORDER=
